<?xml version="1.0" encoding="utf-8"?>
<!DOCTYPE svg PUBLIC "-//W3C//DTD SVG 20010904//EN" "http://www.w3.org/TR/2001/REC-SVG-20010904/DTD/svg10.dtd">
<svg xmlns="http://www.w3.org/2000/svg" xml:space="preserve" xmlns:xlink="http://www.w3.org/1999/xlink" width="111" height="111" viewBox="0 0 111 111">
<desc></desc>
<rect width="111" height="111" fill="#ffffff" cx="0" cy="0" />
<defs>
<rect id="p" width="3" height="3" />
</defs>
<g fill="#000000">
<use x="12" y="12" xlink:href="#p" />
<use x="15" y="12" xlink:href="#p" />
<use x="18" y="12" xlink:href="#p" />
<use x="21" y="12" xlink:href="#p" />
<use x="24" y="12" xlink:href="#p" />
<use x="27" y="12" xlink:href="#p" />
<use x="30" y="12" xlink:href="#p" />
<use x="39" y="12" xlink:href="#p" />
<use x="45" y="12" xlink:href="#p" />
<use x="51" y="12" xlink:href="#p" />
<use x="57" y="12" xlink:href="#p" />
<use x="66" y="12" xlink:href="#p" />
<use x="69" y="12" xlink:href="#p" />
<use x="78" y="12" xlink:href="#p" />
<use x="81" y="12" xlink:href="#p" />
<use x="84" y="12" xlink:href="#p" />
<use x="87" y="12" xlink:href="#p" />
<use x="90" y="12" xlink:href="#p" />
<use x="93" y="12" xlink:href="#p" />
<use x="96" y="12" xlink:href="#p" />
<use x="12" y="15" xlink:href="#p" />
<use x="30" y="15" xlink:href="#p" />
<use x="36" y="15" xlink:href="#p" />
<use x="42" y="15" xlink:href="#p" />
<use x="51" y="15" xlink:href="#p" />
<use x="57" y="15" xlink:href="#p" />
<use x="60" y="15" xlink:href="#p" />
<use x="72" y="15" xlink:href="#p" />
<use x="78" y="15" xlink:href="#p" />
<use x="96" y="15" xlink:href="#p" />
<use x="12" y="18" xlink:href="#p" />
<use x="18" y="18" xlink:href="#p" />
<use x="21" y="18" xlink:href="#p" />
<use x="24" y="18" xlink:href="#p" />
<use x="30" y="18" xlink:href="#p" />
<use x="39" y="18" xlink:href="#p" />
<use x="42" y="18" xlink:href="#p" />
<use x="51" y="18" xlink:href="#p" />
<use x="60" y="18" xlink:href="#p" />
<use x="63" y="18" xlink:href="#p" />
<use x="69" y="18" xlink:href="#p" />
<use x="72" y="18" xlink:href="#p" />
<use x="78" y="18" xlink:href="#p" />
<use x="84" y="18" xlink:href="#p" />
<use x="87" y="18" xlink:href="#p" />
<use x="90" y="18" xlink:href="#p" />
<use x="96" y="18" xlink:href="#p" />
<use x="12" y="21" xlink:href="#p" />
<use x="18" y="21" xlink:href="#p" />
<use x="21" y="21" xlink:href="#p" />
<use x="24" y="21" xlink:href="#p" />
<use x="30" y="21" xlink:href="#p" />
<use x="39" y="21" xlink:href="#p" />
<use x="42" y="21" xlink:href="#p" />
<use x="48" y="21" xlink:href="#p" />
<use x="51" y="21" xlink:href="#p" />
<use x="66" y="21" xlink:href="#p" />
<use x="69" y="21" xlink:href="#p" />
<use x="78" y="21" xlink:href="#p" />
<use x="84" y="21" xlink:href="#p" />
<use x="87" y="21" xlink:href="#p" />
<use x="90" y="21" xlink:href="#p" />
<use x="96" y="21" xlink:href="#p" />
<use x="12" y="24" xlink:href="#p" />
<use x="18" y="24" xlink:href="#p" />
<use x="21" y="24" xlink:href="#p" />
<use x="24" y="24" xlink:href="#p" />
<use x="30" y="24" xlink:href="#p" />
<use x="39" y="24" xlink:href="#p" />
<use x="48" y="24" xlink:href="#p" />
<use x="51" y="24" xlink:href="#p" />
<use x="54" y="24" xlink:href="#p" />
<use x="57" y="24" xlink:href="#p" />
<use x="60" y="24" xlink:href="#p" />
<use x="78" y="24" xlink:href="#p" />
<use x="84" y="24" xlink:href="#p" />
<use x="87" y="24" xlink:href="#p" />
<use x="90" y="24" xlink:href="#p" />
<use x="96" y="24" xlink:href="#p" />
<use x="12" y="27" xlink:href="#p" />
<use x="30" y="27" xlink:href="#p" />
<use x="36" y="27" xlink:href="#p" />
<use x="39" y="27" xlink:href="#p" />
<use x="42" y="27" xlink:href="#p" />
<use x="51" y="27" xlink:href="#p" />
<use x="54" y="27" xlink:href="#p" />
<use x="66" y="27" xlink:href="#p" />
<use x="69" y="27" xlink:href="#p" />
<use x="72" y="27" xlink:href="#p" />
<use x="78" y="27" xlink:href="#p" />
<use x="96" y="27" xlink:href="#p" />
<use x="12" y="30" xlink:href="#p" />
<use x="15" y="30" xlink:href="#p" />
<use x="18" y="30" xlink:href="#p" />
<use x="21" y="30" xlink:href="#p" />
<use x="24" y="30" xlink:href="#p" />
<use x="27" y="30" xlink:href="#p" />
<use x="30" y="30" xlink:href="#p" />
<use x="36" y="30" xlink:href="#p" />
<use x="42" y="30" xlink:href="#p" />
<use x="48" y="30" xlink:href="#p" />
<use x="54" y="30" xlink:href="#p" />
<use x="60" y="30" xlink:href="#p" />
<use x="66" y="30" xlink:href="#p" />
<use x="72" y="30" xlink:href="#p" />
<use x="78" y="30" xlink:href="#p" />
<use x="81" y="30" xlink:href="#p" />
<use x="84" y="30" xlink:href="#p" />
<use x="87" y="30" xlink:href="#p" />
<use x="90" y="30" xlink:href="#p" />
<use x="93" y="30" xlink:href="#p" />
<use x="96" y="30" xlink:href="#p" />
<use x="36" y="33" xlink:href="#p" />
<use x="39" y="33" xlink:href="#p" />
<use x="48" y="33" xlink:href="#p" />
<use x="57" y="33" xlink:href="#p" />
<use x="60" y="33" xlink:href="#p" />
<use x="63" y="33" xlink:href="#p" />
<use x="66" y="33" xlink:href="#p" />
<use x="69" y="33" xlink:href="#p" />
<use x="72" y="33" xlink:href="#p" />
<use x="24" y="36" xlink:href="#p" />
<use x="27" y="36" xlink:href="#p" />
<use x="30" y="36" xlink:href="#p" />
<use x="33" y="36" xlink:href="#p" />
<use x="45" y="36" xlink:href="#p" />
<use x="51" y="36" xlink:href="#p" />
<use x="57" y="36" xlink:href="#p" />
<use x="60" y="36" xlink:href="#p" />
<use x="66" y="36" xlink:href="#p" />
<use x="78" y="36" xlink:href="#p" />
<use x="81" y="36" xlink:href="#p" />
<use x="93" y="36" xlink:href="#p" />
<use x="18" y="39" xlink:href="#p" />
<use x="21" y="39" xlink:href="#p" />
<use x="39" y="39" xlink:href="#p" />
<use x="45" y="39" xlink:href="#p" />
<use x="48" y="39" xlink:href="#p" />
<use x="51" y="39" xlink:href="#p" />
<use x="60" y="39" xlink:href="#p" />
<use x="69" y="39" xlink:href="#p" />
<use x="72" y="39" xlink:href="#p" />
<use x="84" y="39" xlink:href="#p" />
<use x="87" y="39" xlink:href="#p" />
<use x="93" y="39" xlink:href="#p" />
<use x="96" y="39" xlink:href="#p" />
<use x="12" y="42" xlink:href="#p" />
<use x="15" y="42" xlink:href="#p" />
<use x="18" y="42" xlink:href="#p" />
<use x="24" y="42" xlink:href="#p" />
<use x="27" y="42" xlink:href="#p" />
<use x="30" y="42" xlink:href="#p" />
<use x="36" y="42" xlink:href="#p" />
<use x="48" y="42" xlink:href="#p" />
<use x="54" y="42" xlink:href="#p" />
<use x="57" y="42" xlink:href="#p" />
<use x="66" y="42" xlink:href="#p" />
<use x="72" y="42" xlink:href="#p" />
<use x="75" y="42" xlink:href="#p" />
<use x="96" y="42" xlink:href="#p" />
<use x="15" y="45" xlink:href="#p" />
<use x="21" y="45" xlink:href="#p" />
<use x="24" y="45" xlink:href="#p" />
<use x="45" y="45" xlink:href="#p" />
<use x="48" y="45" xlink:href="#p" />
<use x="51" y="45" xlink:href="#p" />
<use x="54" y="45" xlink:href="#p" />
<use x="63" y="45" xlink:href="#p" />
<use x="75" y="45" xlink:href="#p" />
<use x="87" y="45" xlink:href="#p" />
<use x="18" y="48" xlink:href="#p" />
<use x="21" y="48" xlink:href="#p" />
<use x="27" y="48" xlink:href="#p" />
<use x="30" y="48" xlink:href="#p" />
<use x="36" y="48" xlink:href="#p" />
<use x="39" y="48" xlink:href="#p" />
<use x="45" y="48" xlink:href="#p" />
<use x="57" y="48" xlink:href="#p" />
<use x="66" y="48" xlink:href="#p" />
<use x="69" y="48" xlink:href="#p" />
<use x="72" y="48" xlink:href="#p" />
<use x="75" y="48" xlink:href="#p" />
<use x="12" y="51" xlink:href="#p" />
<use x="15" y="51" xlink:href="#p" />
<use x="33" y="51" xlink:href="#p" />
<use x="36" y="51" xlink:href="#p" />
<use x="39" y="51" xlink:href="#p" />
<use x="45" y="51" xlink:href="#p" />
<use x="60" y="51" xlink:href="#p" />
<use x="66" y="51" xlink:href="#p" />
<use x="72" y="51" xlink:href="#p" />
<use x="78" y="51" xlink:href="#p" />
<use x="81" y="51" xlink:href="#p" />
<use x="84" y="51" xlink:href="#p" />
<use x="90" y="51" xlink:href="#p" />
<use x="96" y="51" xlink:href="#p" />
<use x="15" y="54" xlink:href="#p" />
<use x="18" y="54" xlink:href="#p" />
<use x="24" y="54" xlink:href="#p" />
<use x="27" y="54" xlink:href="#p" />
<use x="30" y="54" xlink:href="#p" />
<use x="33" y="54" xlink:href="#p" />
<use x="36" y="54" xlink:href="#p" />
<use x="48" y="54" xlink:href="#p" />
<use x="51" y="54" xlink:href="#p" />
<use x="54" y="54" xlink:href="#p" />
<use x="57" y="54" xlink:href="#p" />
<use x="60" y="54" xlink:href="#p" />
<use x="72" y="54" xlink:href="#p" />
<use x="96" y="54" xlink:href="#p" />
<use x="12" y="57" xlink:href="#p" />
<use x="24" y="57" xlink:href="#p" />
<use x="27" y="57" xlink:href="#p" />
<use x="36" y="57" xlink:href="#p" />
<use x="39" y="57" xlink:href="#p" />
<use x="51" y="57" xlink:href="#p" />
<use x="57" y="57" xlink:href="#p" />
<use x="63" y="57" xlink:href="#p" />
<use x="69" y="57" xlink:href="#p" />
<use x="75" y="57" xlink:href="#p" />
<use x="81" y="57" xlink:href="#p" />
<use x="84" y="57" xlink:href="#p" />
<use x="87" y="57" xlink:href="#p" />
<use x="12" y="60" xlink:href="#p" />
<use x="15" y="60" xlink:href="#p" />
<use x="24" y="60" xlink:href="#p" />
<use x="30" y="60" xlink:href="#p" />
<use x="33" y="60" xlink:href="#p" />
<use x="45" y="60" xlink:href="#p" />
<use x="48" y="60" xlink:href="#p" />
<use x="60" y="60" xlink:href="#p" />
<use x="69" y="60" xlink:href="#p" />
<use x="72" y="60" xlink:href="#p" />
<use x="75" y="60" xlink:href="#p" />
<use x="78" y="60" xlink:href="#p" />
<use x="81" y="60" xlink:href="#p" />
<use x="12" y="63" xlink:href="#p" />
<use x="18" y="63" xlink:href="#p" />
<use x="24" y="63" xlink:href="#p" />
<use x="33" y="63" xlink:href="#p" />
<use x="45" y="63" xlink:href="#p" />
<use x="51" y="63" xlink:href="#p" />
<use x="60" y="63" xlink:href="#p" />
<use x="69" y="63" xlink:href="#p" />
<use x="81" y="63" xlink:href="#p" />
<use x="84" y="63" xlink:href="#p" />
<use x="90" y="63" xlink:href="#p" />
<use x="93" y="63" xlink:href="#p" />
<use x="96" y="63" xlink:href="#p" />
<use x="21" y="66" xlink:href="#p" />
<use x="24" y="66" xlink:href="#p" />
<use x="30" y="66" xlink:href="#p" />
<use x="33" y="66" xlink:href="#p" />
<use x="39" y="66" xlink:href="#p" />
<use x="45" y="66" xlink:href="#p" />
<use x="51" y="66" xlink:href="#p" />
<use x="57" y="66" xlink:href="#p" />
<use x="69" y="66" xlink:href="#p" />
<use x="75" y="66" xlink:href="#p" />
<use x="78" y="66" xlink:href="#p" />
<use x="81" y="66" xlink:href="#p" />
<use x="87" y="66" xlink:href="#p" />
<use x="96" y="66" xlink:href="#p" />
<use x="21" y="69" xlink:href="#p" />
<use x="27" y="69" xlink:href="#p" />
<use x="42" y="69" xlink:href="#p" />
<use x="54" y="69" xlink:href="#p" />
<use x="63" y="69" xlink:href="#p" />
<use x="66" y="69" xlink:href="#p" />
<use x="69" y="69" xlink:href="#p" />
<use x="72" y="69" xlink:href="#p" />
<use x="78" y="69" xlink:href="#p" />
<use x="81" y="69" xlink:href="#p" />
<use x="84" y="69" xlink:href="#p" />
<use x="93" y="69" xlink:href="#p" />
<use x="12" y="72" xlink:href="#p" />
<use x="15" y="72" xlink:href="#p" />
<use x="27" y="72" xlink:href="#p" />
<use x="30" y="72" xlink:href="#p" />
<use x="33" y="72" xlink:href="#p" />
<use x="36" y="72" xlink:href="#p" />
<use x="39" y="72" xlink:href="#p" />
<use x="45" y="72" xlink:href="#p" />
<use x="51" y="72" xlink:href="#p" />
<use x="54" y="72" xlink:href="#p" />
<use x="57" y="72" xlink:href="#p" />
<use x="72" y="72" xlink:href="#p" />
<use x="75" y="72" xlink:href="#p" />
<use x="78" y="72" xlink:href="#p" />
<use x="81" y="72" xlink:href="#p" />
<use x="84" y="72" xlink:href="#p" />
<use x="87" y="72" xlink:href="#p" />
<use x="36" y="75" xlink:href="#p" />
<use x="42" y="75" xlink:href="#p" />
<use x="45" y="75" xlink:href="#p" />
<use x="48" y="75" xlink:href="#p" />
<use x="51" y="75" xlink:href="#p" />
<use x="54" y="75" xlink:href="#p" />
<use x="57" y="75" xlink:href="#p" />
<use x="66" y="75" xlink:href="#p" />
<use x="72" y="75" xlink:href="#p" />
<use x="84" y="75" xlink:href="#p" />
<use x="90" y="75" xlink:href="#p" />
<use x="93" y="75" xlink:href="#p" />
<use x="96" y="75" xlink:href="#p" />
<use x="12" y="78" xlink:href="#p" />
<use x="15" y="78" xlink:href="#p" />
<use x="18" y="78" xlink:href="#p" />
<use x="21" y="78" xlink:href="#p" />
<use x="24" y="78" xlink:href="#p" />
<use x="27" y="78" xlink:href="#p" />
<use x="30" y="78" xlink:href="#p" />
<use x="36" y="78" xlink:href="#p" />
<use x="42" y="78" xlink:href="#p" />
<use x="45" y="78" xlink:href="#p" />
<use x="48" y="78" xlink:href="#p" />
<use x="51" y="78" xlink:href="#p" />
<use x="54" y="78" xlink:href="#p" />
<use x="60" y="78" xlink:href="#p" />
<use x="63" y="78" xlink:href="#p" />
<use x="66" y="78" xlink:href="#p" />
<use x="69" y="78" xlink:href="#p" />
<use x="72" y="78" xlink:href="#p" />
<use x="78" y="78" xlink:href="#p" />
<use x="84" y="78" xlink:href="#p" />
<use x="87" y="78" xlink:href="#p" />
<use x="96" y="78" xlink:href="#p" />
<use x="12" y="81" xlink:href="#p" />
<use x="30" y="81" xlink:href="#p" />
<use x="36" y="81" xlink:href="#p" />
<use x="39" y="81" xlink:href="#p" />
<use x="45" y="81" xlink:href="#p" />
<use x="51" y="81" xlink:href="#p" />
<use x="60" y="81" xlink:href="#p" />
<use x="69" y="81" xlink:href="#p" />
<use x="72" y="81" xlink:href="#p" />
<use x="84" y="81" xlink:href="#p" />
<use x="87" y="81" xlink:href="#p" />
<use x="96" y="81" xlink:href="#p" />
<use x="12" y="84" xlink:href="#p" />
<use x="18" y="84" xlink:href="#p" />
<use x="21" y="84" xlink:href="#p" />
<use x="24" y="84" xlink:href="#p" />
<use x="30" y="84" xlink:href="#p" />
<use x="36" y="84" xlink:href="#p" />
<use x="42" y="84" xlink:href="#p" />
<use x="45" y="84" xlink:href="#p" />
<use x="60" y="84" xlink:href="#p" />
<use x="69" y="84" xlink:href="#p" />
<use x="72" y="84" xlink:href="#p" />
<use x="75" y="84" xlink:href="#p" />
<use x="78" y="84" xlink:href="#p" />
<use x="81" y="84" xlink:href="#p" />
<use x="84" y="84" xlink:href="#p" />
<use x="87" y="84" xlink:href="#p" />
<use x="93" y="84" xlink:href="#p" />
<use x="12" y="87" xlink:href="#p" />
<use x="18" y="87" xlink:href="#p" />
<use x="21" y="87" xlink:href="#p" />
<use x="24" y="87" xlink:href="#p" />
<use x="30" y="87" xlink:href="#p" />
<use x="39" y="87" xlink:href="#p" />
<use x="45" y="87" xlink:href="#p" />
<use x="48" y="87" xlink:href="#p" />
<use x="51" y="87" xlink:href="#p" />
<use x="57" y="87" xlink:href="#p" />
<use x="60" y="87" xlink:href="#p" />
<use x="72" y="87" xlink:href="#p" />
<use x="75" y="87" xlink:href="#p" />
<use x="81" y="87" xlink:href="#p" />
<use x="93" y="87" xlink:href="#p" />
<use x="12" y="90" xlink:href="#p" />
<use x="18" y="90" xlink:href="#p" />
<use x="21" y="90" xlink:href="#p" />
<use x="24" y="90" xlink:href="#p" />
<use x="30" y="90" xlink:href="#p" />
<use x="39" y="90" xlink:href="#p" />
<use x="42" y="90" xlink:href="#p" />
<use x="45" y="90" xlink:href="#p" />
<use x="51" y="90" xlink:href="#p" />
<use x="63" y="90" xlink:href="#p" />
<use x="66" y="90" xlink:href="#p" />
<use x="69" y="90" xlink:href="#p" />
<use x="72" y="90" xlink:href="#p" />
<use x="75" y="90" xlink:href="#p" />
<use x="90" y="90" xlink:href="#p" />
<use x="93" y="90" xlink:href="#p" />
<use x="96" y="90" xlink:href="#p" />
<use x="12" y="93" xlink:href="#p" />
<use x="30" y="93" xlink:href="#p" />
<use x="42" y="93" xlink:href="#p" />
<use x="45" y="93" xlink:href="#p" />
<use x="48" y="93" xlink:href="#p" />
<use x="51" y="93" xlink:href="#p" />
<use x="54" y="93" xlink:href="#p" />
<use x="57" y="93" xlink:href="#p" />
<use x="69" y="93" xlink:href="#p" />
<use x="75" y="93" xlink:href="#p" />
<use x="78" y="93" xlink:href="#p" />
<use x="81" y="93" xlink:href="#p" />
<use x="87" y="93" xlink:href="#p" />
<use x="93" y="93" xlink:href="#p" />
<use x="96" y="93" xlink:href="#p" />
<use x="12" y="96" xlink:href="#p" />
<use x="15" y="96" xlink:href="#p" />
<use x="18" y="96" xlink:href="#p" />
<use x="21" y="96" xlink:href="#p" />
<use x="24" y="96" xlink:href="#p" />
<use x="27" y="96" xlink:href="#p" />
<use x="30" y="96" xlink:href="#p" />
<use x="48" y="96" xlink:href="#p" />
<use x="54" y="96" xlink:href="#p" />
<use x="57" y="96" xlink:href="#p" />
<use x="63" y="96" xlink:href="#p" />
<use x="69" y="96" xlink:href="#p" />
<use x="72" y="96" xlink:href="#p" />
<use x="75" y="96" xlink:href="#p" />
<use x="81" y="96" xlink:href="#p" />
<use x="84" y="96" xlink:href="#p" />
<use x="87" y="96" xlink:href="#p" />
<use x="93" y="96" xlink:href="#p" />
</g>
</svg>